<?xml version="1.0" standalone="no"?>
<!DOCTYPE svg PUBLIC "-//W3C//DTD SVG 20010904//EN"
 "http://www.w3.org/TR/2001/REC-SVG-20010904/DTD/svg10.dtd">
<svg version="1.0" xmlns="http://www.w3.org/2000/svg"
 width="600.000000pt" height="600.000000pt" viewBox="0 0 600.000000 600.000000"
 preserveAspectRatio="xMidYMid meet">

<g transform="translate(0.000000,600.000000) scale(0.100000,-0.100000)"
fill="#000000" stroke="none">
<path d="M1798 5067 l-1198 -692 0 -1385 1 -1385 1199 -692 1200 -692 1200
692 1199 692 1 1385 0 1385 -1196 690 c-657 380 -1198 691 -1202 692 -4 1
-546 -310 -1204 -690z m1903 -103 l99 -56 0 -117 0 -116 -93 -52 c-51 -28 -97
-53 -104 -55 -6 -2 -54 22 -107 52 l-96 55 2 119 3 118 90 53 c50 29 94 54 98
54 5 1 54 -24 108 -55z m-1288 5 c58 -16 71 -45 78 -178 4 -64 10 -126 14
-138 6 -18 2 -25 -20 -35 -25 -11 -29 -10 -42 9 l-15 22 -27 -20 c-36 -26
-102 -35 -141 -19 -64 27 -80 117 -31 172 29 32 32 33 110 33 l81 0 0 28 c0
66 -49 88 -135 63 -53 -16 -65 -14 -65 13 0 25 19 39 66 50 54 12 83 13 127 0z
m847 -9 c12 -6 20 -21 20 -37 0 -22 -3 -24 -22 -19 -59 18 -98 18 -123 2 -48
-31 -22 -64 72 -92 63 -18 93 -52 93 -103 0 -69 -55 -111 -145 -111 -68 0
-115 23 -115 56 0 23 3 25 23 19 12 -4 45 -9 73 -12 65 -7 96 8 92 45 -2 22
-12 30 -53 44 -126 45 -158 87 -123 164 25 55 141 80 208 44z m-662 -7 c5 -10
22 -69 37 -131 16 -62 32 -107 35 -100 4 7 17 58 30 113 29 129 33 137 73 133
l32 -3 31 -120 c16 -66 32 -126 35 -133 2 -8 17 40 33 105 35 146 39 153 76
153 23 0 30 -5 30 -20 0 -24 -90 -311 -103 -327 -5 -7 -22 -13 -38 -13 -34 0
-40 11 -64 110 -9 36 -21 83 -27 105 l-11 40 -31 -125 -31 -125 -39 0 -40 0
-48 155 c-58 187 -59 200 -18 200 18 0 33 -7 38 -17z m620 -460 c2 -9 -8 -13
-31 -13 -38 0 -47 -12 -47 -61 l0 -29 75 0 75 0 0 -115 c0 -96 -3 -115 -15
-115 -12 0 -15 18 -15 105 l0 105 -60 0 -60 0 0 -105 c0 -87 -3 -105 -15 -105
-12 0 -15 18 -15 105 0 98 -1 105 -20 105 -11 0 -20 5 -20 10 0 6 9 10 20 10
16 0 20 7 20 38 0 56 24 84 68 80 19 -2 37 -9 40 -15z m582 -163 c0 -144 -2
-170 -15 -170 -8 0 -15 5 -15 11 0 5 -10 3 -22 -5 -70 -49 -158 11 -158 109 0
99 73 149 163 110 15 -6 17 0 17 54 0 48 3 61 15 61 13 0 15 -26 15 -170z
m-772 133 c5 -18 -28 -29 -38 -12 -5 7 -6 17 -3 22 7 12 35 5 41 -10z m270 0
c-5 -26 -38 -29 -38 -4 0 15 6 21 21 21 14 0 19 -5 17 -17z m-428 -38 c0 -33
2 -35 35 -35 19 0 35 -4 35 -10 0 -5 -16 -10 -35 -10 l-36 0 3 -92 3 -93 33 0
c43 0 40 -29 -3 -33 -53 -4 -60 8 -65 115 -5 92 -6 98 -27 101 -31 5 -29 22 2
22 22 0 25 4 25 35 0 24 5 35 15 35 10 0 15 -11 15 -35z m-516 -31 c34 -13 15
-29 -34 -29 -67 0 -84 -18 -84 -91 0 -73 26 -99 91 -91 31 3 43 1 43 -8 0 -28
-74 -34 -120 -10 -35 18 -54 71 -47 133 8 77 81 123 151 96z m201 0 c22 -9 45
-57 45 -94 l0 -30 -86 0 -86 0 6 -27 c11 -47 43 -66 103 -61 38 3 53 1 53 -8
0 -16 -23 -24 -71 -24 -51 0 -92 21 -107 55 -27 60 -5 161 41 183 25 12 77 15
102 6z m212 -11 c2 -6 -9 -14 -24 -18 -54 -13 -63 -30 -63 -122 0 -67 -3 -83
-15 -83 -12 0 -15 19 -15 115 0 96 3 115 15 115 8 0 15 -4 15 -10 0 -5 15 -3
33 5 35 15 49 15 54 -2z m738 11 c22 -9 45 -57 45 -94 l0 -30 -86 0 -86 0 6
-27 c11 -47 43 -66 103 -61 38 3 53 1 53 -8 0 -16 -23 -24 -71 -24 -85 0 -127
53 -116 148 8 77 81 123 152 96z m-485 -119 c0 -96 -3 -115 -15 -115 -12 0
-15 19 -15 115 0 96 3 115 15 115 12 0 15 -19 15 -115z m1430 -395 c0 -7 -490
-10 -1450 -10 -960 0 -1450 3 -1450 10 0 7 490 10 1450 10 960 0 1450 -3 1450
-10z m-1132 -277 c30 -40 0 -93 -53 -93 -40 0 -68 29 -63 66 6 51 84 68 116
27z m-808 -173 c0 -175 1 -180 21 -180 18 0 20 -5 17 -42 l-3 -43 -44 -3 c-52
-4 -84 11 -100 45 -7 15 -11 96 -11 213 l0 190 60 0 60 0 0 -180z m-591 149
c29 -10 31 -14 31 -56 0 -37 -3 -44 -16 -39 -41 16 -119 17 -139 2 -18 -13
-18 -16 -5 -29 8 -8 39 -22 69 -32 29 -10 67 -30 85 -45 28 -25 31 -34 31 -83
0 -63 -24 -99 -82 -123 -39 -17 -148 -18 -192 -3 -29 10 -31 14 -31 56 0 36 3
44 15 39 8 -3 43 -8 78 -12 47 -4 67 -2 82 9 27 21 9 39 -63 65 -79 29 -115
68 -116 126 -2 82 63 136 165 136 31 0 70 -5 88 -11z m1171 -64 c0 -33 2 -35
35 -35 34 0 35 -1 35 -40 0 -39 -1 -40 -35 -40 l-36 0 3 -72 3 -73 33 -3 c30
-3 32 -6 32 -42 0 -38 -1 -39 -45 -46 -57 -8 -115 12 -132 46 -7 14 -13 62
-13 108 0 75 -2 82 -20 82 -29 0 -29 60 0 67 13 3 24 19 30 44 11 39 11 39 60
39 l50 0 0 -35z m-823 -55 c45 -27 67 -74 67 -141 -1 -101 -59 -159 -157 -159
-54 0 -90 16 -127 55 -20 21 -25 39 -28 94 -7 118 41 171 153 171 42 0 70 -6
92 -20z m443 -94 c0 -94 3 -115 16 -120 8 -3 24 -1 35 4 17 10 19 22 19 120
l0 110 55 0 55 0 0 -155 0 -155 -43 0 c-24 0 -48 5 -53 10 -7 7 -20 6 -40 -5
-44 -23 -98 -19 -131 9 -27 24 -28 27 -32 145 -2 67 -1 128 3 136 4 11 21 15
61 15 l55 0 0 -114z m610 -41 l0 -155 -55 0 -55 0 0 155 0 155 55 0 55 0 0
-155z m307 135 c45 -27 67 -74 67 -141 -1 -101 -59 -159 -157 -159 -54 0 -90
16 -127 54 -19 21 -25 40 -28 89 -8 120 41 177 153 177 42 0 70 -6 92 -20z
m221 4 c9 -16 11 -16 33 0 35 24 123 22 149 -4 18 -18 20 -33 20 -155 l0 -135
-55 0 -55 0 0 103 c0 56 -4 108 -9 115 -4 8 -19 12 -32 10 -23 -3 -24 -5 -27
-115 l-3 -113 -59 0 -60 0 0 155 0 155 45 0 c30 0 47 -5 53 -16z m463 6 c13
-7 19 -21 19 -43 l0 -33 -60 4 c-75 5 -79 -9 -10 -39 92 -39 115 -101 61 -161
-29 -32 -32 -33 -109 -33 -92 0 -115 12 -110 59 2 22 8 30 18 28 8 -2 39 -6
68 -9 70 -8 70 15 0 48 -68 32 -93 65 -84 114 10 50 52 75 129 75 32 0 67 -5
78 -10z m-1151 -450 c11 -11 20 -29 20 -40 0 -27 -35 -60 -63 -60 -36 0 -67
27 -67 60 0 54 71 79 110 40z m-360 -76 c0 -69 2 -75 18 -69 55 24 89 28 117
14 46 -22 55 -51 55 -186 l0 -123 -60 0 -59 0 -3 113 -3 112 -30 0 -30 0 -3
-112 -3 -113 -54 0 -55 0 0 220 0 220 55 0 55 0 0 -76z m-827 29 c3 -10 34
-103 71 -206 l65 -188 -66 3 -67 3 -9 38 -9 38 -61 -3 -61 -3 -9 -37 -9 -38
-65 0 c-35 0 -63 4 -61 8 2 4 34 97 72 205 l69 197 67 0 c56 0 69 -3 73 -17z
m1387 -43 l0 -40 40 0 c40 0 40 0 40 -39 0 -39 -1 -40 -37 -43 l-38 -3 -3 -58
c-4 -68 8 -87 50 -87 28 0 29 -2 26 -37 -3 -35 -6 -38 -44 -46 -54 -10 -114
10 -131 43 -7 14 -13 61 -13 108 0 75 -2 82 -20 82 -16 0 -20 7 -20 35 0 28 4
35 20 35 13 0 22 9 26 28 14 63 13 62 60 62 l44 0 0 -40z m860 0 l0 -40 40 0
40 0 0 -40 0 -40 -40 0 -41 0 3 -72 3 -73 38 -3 c37 -3 38 -4 35 -40 -3 -33
-6 -37 -42 -44 -45 -9 -107 5 -127 29 -9 10 -16 51 -19 107 -5 86 -6 91 -28
94 -19 3 -23 9 -20 35 2 24 8 33 25 35 17 3 24 12 29 40 9 51 10 52 60 52 l44
0 0 -40z m-512 -56 c35 -23 55 -79 47 -131 l-6 -43 -85 0 c-88 0 -101 -8 -59
-36 19 -13 37 -15 85 -9 l60 7 0 -35 c0 -34 -2 -35 -51 -47 -135 -33 -229 30
-229 150 1 110 72 177 175 164 22 -3 51 -12 63 -20z m-1465 -5 l6 -21 27 21
c15 11 40 21 55 21 28 0 29 -2 29 -50 l0 -50 -34 0 c-65 0 -66 -2 -66 -111 l0
-99 -60 0 -60 0 0 155 0 155 49 0 c41 0 50 -3 54 -21z m371 15 c11 -4 16 -19
16 -44 l0 -38 -44 5 c-57 7 -86 -19 -86 -75 0 -54 25 -75 84 -70 l46 3 0 -38
c0 -45 -11 -51 -96 -52 -78 0 -127 33 -145 98 -33 124 32 217 153 217 31 0 63
-3 72 -6z m556 -149 l0 -155 -55 0 -55 0 0 155 0 155 55 0 55 0 0 -155z m861
145 c13 -7 19 -21 19 -45 l0 -34 -47 5 c-59 7 -81 -8 -90 -58 -4 -27 -1 -45
12 -64 15 -23 22 -25 71 -22 l54 3 0 -37 c0 -35 -2 -38 -42 -48 -62 -17 -123
-5 -166 35 -34 31 -36 37 -40 101 -4 82 16 128 69 156 37 20 128 24 160 8z
m419 -630 c0 -7 -490 -10 -1450 -10 -960 0 -1450 3 -1450 10 0 7 490 10 1450
10 960 0 1450 -3 1450 -10z m-2302 -306 c15 -4 22 -14 22 -30 0 -22 -4 -24
-45 -24 -55 0 -58 -16 -7 -37 52 -21 72 -42 72 -73 0 -46 -29 -72 -87 -77 -57
-6 -93 8 -93 37 0 18 7 20 55 20 64 0 71 13 18 35 -67 28 -86 60 -67 110 13
32 81 52 132 39z m281 0 c24 -5 31 -12 31 -30 0 -22 -4 -24 -45 -24 -57 0 -61
-22 -6 -38 48 -15 64 -34 64 -74 0 -45 -41 -78 -98 -78 -59 0 -75 8 -75 36 0
22 4 24 50 24 28 0 50 4 50 10 0 5 -21 20 -47 32 -44 21 -48 27 -51 61 -6 67
42 98 127 81z m331 -12 c43 -21 60 -53 60 -114 0 -68 -37 -109 -106 -115 -43
-5 -54 -2 -82 22 -65 54 -61 156 7 202 41 28 74 29 121 5z m329 12 c25 -5 31
-11 31 -33 0 -25 -3 -27 -35 -23 -46 6 -75 -19 -75 -64 0 -43 23 -64 71 -64
35 0 39 -3 39 -25 0 -50 -106 -47 -152 5 -54 59 -28 178 44 199 43 12 41 12
77 5z m-1215 -111 c20 -60 36 -111 36 -115 0 -5 -15 -8 -34 -8 -26 0 -36 5
-41 20 -5 15 -15 20 -40 20 -24 0 -34 -5 -38 -20 -4 -15 -14 -20 -41 -20 -20
0 -36 2 -36 4 0 4 53 156 70 202 8 20 17 24 48 24 l39 0 37 -107z m1436 -8 l0
-115 -35 0 -35 0 0 115 0 115 35 0 35 0 0 -115z m301 0 c21 -60 39 -111 39
-112 0 -2 -18 -3 -40 -3 -33 0 -40 3 -40 20 0 16 -7 20 -36 20 -27 0 -37 -5
-41 -20 -4 -15 -14 -20 -39 -20 -19 0 -34 3 -34 8 0 4 16 56 37 115 l36 108
40 -3 39 -3 39 -110z m329 90 c0 -22 -4 -25 -35 -25 l-35 0 0 -90 0 -90 -35 0
-35 0 0 90 0 90 -35 0 c-31 0 -35 3 -35 25 l0 25 105 0 105 0 0 -25z m270 0
c0 -23 -3 -25 -50 -25 -43 0 -50 -3 -50 -20 0 -17 7 -20 40 -20 36 0 40 -2 40
-25 0 -22 -4 -25 -40 -25 -33 0 -40 -3 -40 -20 0 -17 7 -20 50 -20 47 0 50 -2
50 -25 0 -25 -1 -25 -85 -25 l-85 0 0 115 0 115 85 0 c84 0 85 0 85 -25z"/>
<path d="M2302 4763 c-25 -10 -34 -53 -16 -81 14 -21 21 -24 57 -19 46 6 77
35 77 72 0 13 -7 26 -16 29 -19 7 -83 7 -102 -1z"/>
<path d="M3651 4351 c-26 -26 -35 -74 -21 -116 18 -54 71 -72 118 -39 19 13
22 24 22 79 0 55 -3 66 -22 79 -30 22 -74 20 -97 -3z"/>
<path d="M2458 4353 c-9 -10 -19 -28 -22 -40 -7 -22 -5 -23 63 -23 78 0 88 11
55 58 -19 27 -74 30 -96 5z"/>
<path d="M3407 4353 c-8 -10 -17 -27 -19 -38 -3 -18 3 -20 65 -23 59 -3 67 -1
67 15 0 10 -7 29 -16 41 -19 27 -74 30 -97 5z"/>
<path d="M2151 3387 c-29 -35 -21 -121 13 -141 39 -24 71 63 46 128 -10 28
-40 35 -59 13z"/>
<path d="M3511 3387 c-29 -35 -21 -121 13 -141 39 -24 71 63 46 128 -10 28
-40 35 -59 13z"/>
<path d="M1881 2823 c-7 -27 -14 -56 -17 -65 -4 -15 1 -18 30 -18 20 0 36 5
36 11 0 14 -30 119 -35 119 -1 0 -8 -21 -14 -47z"/>
<path d="M3598 2809 c-33 -19 -21 -39 22 -39 41 0 52 14 28 38 -14 14 -27 15
-50 1z"/>
<path d="M2672 1878 c-13 -13 -16 -75 -6 -102 7 -19 55 -21 72 -4 16 16 16 90
0 106 -7 7 -21 12 -33 12 -12 0 -26 -5 -33 -12z"/>
<path d="M1791 1860 c-1 -8 -4 -25 -7 -37 -5 -17 -2 -23 10 -23 17 0 20 23 6
55 -6 13 -9 15 -9 5z"/>
<path d="M3520 1836 c-13 -36 -13 -36 10 -36 17 0 19 4 14 28 -9 38 -12 39
-24 8z"/>
</g>
</svg>
